Coordinates
version=1
nRows=58
nColumns=8
inDegrees=no

Units are S.I. units (second, meters, Newtons, ...)
Angles are in radian.

endheader
time	ra_sh_e_f	ra_sh_ad_ab	ra_sh_ext_int	ra_el_e_f	ra_wr_e_f	ra_wr_s_p	ra_wr_ad_ab
      1.03877551	      0.17897539	      0.04624435	     -0.10908442	      0.23596050	      0.23596050	     -0.04965744	      0.33466305
      1.04081633	      0.17896329	      0.04627005	     -0.10919823	      0.23602323	      0.23602323	     -0.04967491	      0.33491486
      1.04285714	      0.17893148	      0.04623893	     -0.10902796	      0.23604294	      0.23604294	     -0.04962471	      0.33477775
      1.04489796	      0.17892028	      0.04624294	     -0.10910189	      0.23608192	      0.23608192	     -0.04965824	      0.33476610
      1.04693878	      0.17890056	      0.04628511	     -0.10926365	      0.23604697	      0.23604697	     -0.04967711	      0.33485751
      1.04897959	      0.17885710	      0.04627045	     -0.10914670	      0.23603398	      0.23603398	     -0.04961990	      0.33530469
      1.05102041	      0.17885351	      0.04627527	     -0.10921974	      0.23603936	      0.23603936	     -0.04966447	      0.33470158
      1.05306122	      0.17884858	      0.04628049	     -0.10920540	      0.23601785	      0.23601785	     -0.04966527	      0.33510888
      1.05510204	      0.17882439	      0.04627487	     -0.10917986	      0.23620514	      0.23620514	     -0.04960584	      0.33491173
      1.05714286	      0.17881363	      0.04627507	     -0.10922332	      0.23614376	      0.23614376	     -0.04963535	      0.33498969
      1.05918367	      0.17876927	      0.04630438	     -0.10925558	      0.23627773	      0.23627773	     -0.04961287	      0.33509006
      1.06122449	      0.17876479	      0.04625379	     -0.10913057	      0.23633195	      0.23633195	     -0.04962632	      0.33528049
      1.06326531	      0.17876838	      0.04627125	     -0.10923587	      0.23614958	      0.23614958	     -0.04965423	      0.33496998
      1.06530612	      0.17869400	      0.04628611	     -0.10922959	      0.23630058	      0.23630058	     -0.04962030	      0.33494847
      1.06734694	      0.17876121	      0.04624796	     -0.10920092	      0.23623248	      0.23623248	     -0.04966125	      0.33468680
      1.06938776	      0.17869893	      0.04629193	     -0.10923676	      0.23634629	      0.23634629	     -0.04962512	      0.33557533
      1.07142857	      0.17874866	      0.04624957	     -0.10914760	      0.23628848	      0.23628848	     -0.04960544	      0.33516534
      1.07346939	      0.17869982	      0.04629314	     -0.10928112	      0.23637496	      0.23637496	     -0.04964600	      0.33562999
      1.07551020	      0.17871999	      0.04626423	     -0.10921391	      0.23623830	      0.23623830	     -0.04963857	      0.33508737
      1.07755102	      0.17867204	      0.04627226	     -0.10920092	      0.23647623	      0.23647623	     -0.04962230	      0.33554530
      1.07959184	      0.17869265	      0.04630257	     -0.10934744	      0.23627056	      0.23627056	     -0.04967711	      0.33516579
      1.08163265	      0.17865098	      0.04628671	     -0.10922959	      0.23640767	      0.23640767	     -0.04962070	      0.33516175
      1.08367347	      0.17868593	      0.04628350	     -0.10926813	      0.23631671	      0.23631671	     -0.04963997	      0.33484452
      1.08571429	      0.17867876	      0.04631121	     -0.10934878	      0.23650311	      0.23650311	     -0.04965664	      0.33534770
      1.08775510	      0.17867339	      0.04631663	     -0.10928784	      0.23654971	      0.23654971	     -0.04959701	      0.33603415
      1.08979592	      0.17868056	      0.04632124	     -0.10950606	      0.23644890	      0.23644890	     -0.04979115	      0.33613542
      1.09183673	      0.17865681	      0.04633409	     -0.10934206	      0.23653313	      0.23653313	     -0.04963315	      0.33544718
      1.09387755	      0.17867921	      0.04629816	     -0.10926813	      0.23657794	      0.23657794	     -0.04961668	      0.33541671
      1.09591837	      0.17870162	      0.04632466	     -0.10943840	      0.23648160	      0.23648160	     -0.04970301	      0.33534905
      1.09795918	      0.17869265	      0.04628671	     -0.10923945	      0.23653134	      0.23653134	     -0.04964118	      0.33515414
      1.10000000	      0.17869669	      0.04631482	     -0.10936536	      0.23650356	      0.23650356	     -0.04967571	      0.33457836
      1.10204082	      0.17870699	      0.04635277	     -0.10947648	      0.23679212	      0.23679212	     -0.04965764	      0.33516444
      1.10408163	      0.17874194	      0.04631663	     -0.10935237	      0.23677778	      0.23677778	     -0.04963997	      0.33510037
      1.10612245	      0.17874149	      0.04635799	     -0.10952756	      0.23685440	      0.23685440	     -0.04966989	      0.33469934
      1.10816327	      0.17875314	      0.04636421	     -0.10950292	      0.23706724	      0.23706724	     -0.04962732	      0.33489829
      1.11020408	      0.17878989	      0.04634212	     -0.10946304	      0.23714117	      0.23714117	     -0.04963355	      0.33478089
      1.11224490	      0.17883783	      0.04636903	     -0.10955176	      0.23707933	      0.23707933	     -0.04962732	      0.33506497
      1.11428571	      0.17883604	      0.04638348	     -0.10954593	      0.23730920	      0.23730920	     -0.04958235	      0.33494489
      1.11632653	      0.17888174	      0.04638609	     -0.10956655	      0.23747812	      0.23747812	     -0.04955485	      0.33484810
      1.11836735	      0.17893954	      0.04641280	     -0.10961404	      0.23771739	      0.23771739	     -0.04953095	      0.33541536
      1.12040816	      0.17897853	      0.04638971	     -0.10955893	      0.23783748	      0.23783748	     -0.04948257	      0.33473295
      1.12244898	      0.17904574	      0.04642645	     -0.10963465	      0.23808123	      0.23808123	     -0.04940808	      0.33566987
      1.12448980	      0.17912639	      0.04639272	     -0.10948500	      0.23831154	      0.23831154	     -0.04932617	      0.33525406
      1.12653061	      0.17916716	      0.04638328	     -0.10938866	      0.23853333	      0.23853333	     -0.04924666	      0.33548168
      1.12857143	      0.17929262	      0.04640456	     -0.10953249	      0.23876320	      0.23876320	     -0.04921314	      0.33543239
      1.13061224	      0.17930472	      0.04643408	     -0.10948679	      0.23902666	      0.23902666	     -0.04910894	      0.33575635
      1.13265306	      0.17947141	      0.04642565	     -0.10942854	      0.23935017	      0.23935017	     -0.04903847	      0.33531231
      1.13469388	      0.17957760	      0.04645375	     -0.10945811	      0.23975299	      0.23975299	     -0.04895073	      0.33578099
      1.13673469	      0.17970440	      0.04644271	     -0.10936402	      0.24004469	      0.24004469	     -0.04881320	      0.33561431
      1.13877551	      0.17981239	      0.04648748	     -0.10945229	      0.24059671	      0.24059671	     -0.04878088	      0.33610674
      1.14081633	      0.17995443	      0.04645817	     -0.10918882	      0.24109497	      0.24109497	     -0.04858934	      0.33631375
      1.14285714	      0.18015069	      0.04646901	     -0.10921481	      0.24169405	      0.24169405	     -0.04846687	      0.33717584
      1.14489796	      0.18034291	      0.04650635	     -0.10922556	      0.24211792	      0.24211792	     -0.04834240	      0.33699617
      1.14693878	      0.18042715	      0.04652322	     -0.10898808	      0.24281737	      0.24281737	     -0.04808320	      0.33734163
      1.14897959	      0.18068658	      0.04652041	     -0.10890026	      0.24339448	      0.24339448	     -0.04790070	      0.33714448
      1.15102041	      0.18088194	      0.04658546	     -0.10890564	      0.24407511	      0.24407511	     -0.04772724	      0.33817639
      1.15306122	      0.18106789	      0.04660835	     -0.10863410	      0.24479427	      0.24479427	     -0.04737689	      0.33808723
      1.15510204	      0.18133987	      0.04664428	     -0.10876046	      0.24558556	      0.24558556	     -0.04739657	      0.33968999
